<?xml version="1.0" encoding="utf-8"?>
<!-- Generator: Adobe Illustrator 23.1.0, SVG Export Plug-In . SVG Version: 6.00 Build 0)  -->
<svg version="1.1" id="Layer_1" xmlns="http://www.w3.org/2000/svg" xmlns:xlink="http://www.w3.org/1999/xlink" x="0px" y="0px"
	 viewBox="0 0 140.6 107.6" enable-background="new 0 0 140.6 107.6" xml:space="preserve">
<g>
	<path d="M136.5,5.7c-1.5-2-3-3.9-4.6-5.7H53.2c-0.6,0.4-1.2,0.8-1.7,1.2c-6.9,4.9-13.1,10.6-18.7,17c-6.1-0.4-12.3-0.1-18.3,0.8
		c-5.2,1-10.1,3.2-14.4,6.4c1,6.1,3.4,11.8,7,16.8c2.7,3.8,6.1,7.2,9.9,9.9c-0.9,11.3,2.4,22.2,9.9,32.6
		c6.6,9.1,13.2,15.4,19.9,18.9c3.5,1.8,7.3,3,11.1,3.5c3.9,0.5,7.9,0.4,11.8-0.4c3.9-0.8,7.7-1.8,11.5-3.1c4-1.4,7.8-3.2,11.5-5.3
		c4-2.2,7.4-4.3,10.3-6.2c2.9-1.9,6.1-4.1,9.5-6.6c4-2.9,7.6-5.7,10.8-8.2c3.6-3,7-6.2,10.2-9.6c2.6-2.6,5-5.5,7.1-8.5V11.8
		C139.3,9.8,138,7.8,136.5,5.7z M134.9,50.3c-1.1,3.5-2.9,6.8-5.2,9.8c-2.3,3.1-4.9,6-7.8,8.6c-3,2.7-6.2,5.2-9.5,7.6l-11.1,8
		c-3.3,2.4-6.7,4.6-10.1,6.6c-3.4,1.9-6.9,3.5-10.6,4.7c-3.5,1.3-7.2,1.9-10.9,1.9c-3.6-0.2-7.1-1.2-10.2-2.9
		c-3.8-2.1-7-5.1-9.4-8.6c-3.7-4.8-5.5-10.7-5.2-16.7c0.4-5.9,3.1-10.7,8.3-14.4c4.5-2.9,9.1-5.5,13.8-7.9c3.8-2,7.4-4.2,10.9-6.7
		c3.5-2.5,6.8-5.2,9.8-8.2c6.1-5.8,10-9.4,11.8-10.7c5.2-3.7,10.6-4.9,16.3-3.4c5.8,1.6,10.9,5.2,14.3,10.2
		c2.6,3.4,4.4,7.4,5.2,11.7l0,0C136,43.1,135.8,46.8,134.9,50.3z"/>
	<path d="M72.7,61.2c-1.9-1.5-4.1-2.5-6.5-3c-4.1-1.1-8.3,1.4-9.3,5.5c-0.1,0.5-0.2,0.9-0.2,1.4c-0.3,2.4,0,4.8,0.8,7.1
		c1.4,4.3,4.2,8.1,7.8,10.8c1.9,1.5,4.1,2.5,6.5,3c4.1,1.1,8.3-1.4,9.3-5.5c0.1-0.5,0.2-0.9,0.2-1.4c0.3-2.4,0-4.8-0.8-7.1
		C79,67.7,76.3,63.9,72.7,61.2z"/>
	<path d="M114.8,30.8c-1.9-1.5-4.1-2.5-6.5-3l0,0c-4.1-1.1-8.3,1.4-9.3,5.5c-0.1,0.5-0.2,0.9-0.2,1.4c-0.3,2.4,0,4.8,0.8,7.1
		c1.4,4.3,4.2,8.1,7.8,10.8c1.9,1.5,4.1,2.5,6.5,3c4.1,1.1,8.3-1.4,9.3-5.5c0.1-0.5,0.2-0.9,0.2-1.4c0.3-2.4,0-4.8-0.8-7.1
		C121.2,37.3,118.5,33.5,114.8,30.8z"/>
</g>
</svg>
