<svg xmlns="http://www.w3.org/2000/svg" width="110.679" height="115.616" viewBox="0 0 110.679 115.616"><path d="M110.576,72.27l-9.93-5.734a44.9,44.9,0,0,0,0-16.363l9.93-5.734a2.817,2.817,0,0,0,1.282-3.263,58.054,58.054,0,0,0-12.75-22.051,2.8,2.8,0,0,0-3.45-.536l-9.93,5.734A43.991,43.991,0,0,0,71.556,16.14V4.7a2.793,2.793,0,0,0-2.191-2.727,58.6,58.6,0,0,0-25.454,0A2.793,2.793,0,0,0,41.719,4.7V16.164a45.379,45.379,0,0,0-14.172,8.182l-9.907-5.734a2.77,2.77,0,0,0-3.45.536A57.705,57.705,0,0,0,1.441,41.2a2.788,2.788,0,0,0,1.282,3.263l9.93,5.734a44.9,44.9,0,0,0,0,16.363l-9.93,5.734a2.817,2.817,0,0,0-1.282,3.263,58.054,58.054,0,0,0,12.75,22.051,2.8,2.8,0,0,0,3.45.536l9.93-5.734a43.991,43.991,0,0,0,14.172,8.182v11.468a2.793,2.793,0,0,0,2.191,2.727,58.6,58.6,0,0,0,25.454,0,2.793,2.793,0,0,0,2.191-2.727V100.591a45.379,45.379,0,0,0,14.172-8.182l9.93,5.734a2.77,2.77,0,0,0,3.45-.536,57.705,57.705,0,0,0,12.75-22.051,2.879,2.879,0,0,0-1.305-3.287ZM56.638,77A18.648,18.648,0,1,1,75.285,58.354,18.672,18.672,0,0,1,56.638,77Z" transform="translate(-1.311 -0.569)" fill="#fff"/></svg>