<svg xmlns="http://www.w3.org/2000/svg" width="159.751" height="111.843" viewBox="0 0 159.751 111.843"><path d="M87.341,53.242h-16.5V38.416h16.5Zm0-50.992h-16.5V17.4h16.5Zm19.518,36.141h-16.5V53.217h16.5V38.391Zm-39.012-18h-16.5v15h16.5Zm19.493,0h-16.5v15h16.5Zm69.088,24.959c-3.594-2.421-11.881-3.295-18.245-2.1-.824-5.99-4.168-11.207-10.258-15.9l-3.494-2.321-2.321,3.494c-4.593,6.939-5.841,18.37-.923,25.908a25.1,25.1,0,0,1-12.08,2.671H.607C-1.565,69.79,2.054,86.263,11.589,97.57c9.26,10.957,23.137,16.523,41.283,16.523,39.286,0,68.364-18.1,81.967-50.967,5.341.1,16.873.025,22.788-11.282.374-.624,1.647-3.295,2.122-4.268l-3.32-2.221ZM28.861,38.391H12.388V53.217h16.5V38.391Zm19.493,0h-16.5V53.217h16.5V38.391Zm19.493,0h-16.5V53.217h16.5V38.391Zm-19.493-18h-16.5v15h16.5Z" transform="translate(0.003 -2.25)" fill="#fff"/></svg>