<svg xmlns="http://www.w3.org/2000/svg" width="109.977" height="128.642" viewBox="0 0 109.977 128.642"><g transform="translate(0 -0.979)"><path d="M0,43.908v12.2q0,4.95,7.375,9.187t20.047,6.713A143.853,143.853,0,0,0,54.989,74.49a143.835,143.835,0,0,0,27.567-2.477Q95.228,69.536,102.6,65.3t7.375-9.187v-12.2q-8.522,6.031-23.27,9.117a154.71,154.71,0,0,1-31.718,3.087A154.71,154.71,0,0,1,23.27,53.025Q8.521,49.938,0,43.908ZM0,99.039v12.2q0,4.954,7.375,9.19t20.047,6.71a143.85,143.85,0,0,0,27.567,2.477,143.833,143.833,0,0,0,27.567-2.477q12.672-2.477,20.047-6.71t7.375-9.19v-12.2q-8.522,6.031-23.27,9.117a154.71,154.71,0,0,1-31.718,3.087,154.71,154.71,0,0,1-31.718-3.087Q8.521,105.073,0,99.039ZM0,71.475v12.2q0,4.954,7.375,9.19t20.047,6.71a143.852,143.852,0,0,0,27.567,2.477,143.834,143.834,0,0,0,27.567-2.477Q95.228,97.1,102.6,92.867t7.375-9.19v-12.2q-8.522,6.027-23.27,9.115a154.546,154.546,0,0,1-31.718,3.087A154.546,154.546,0,0,1,23.27,80.59Q8.521,77.506,0,71.475ZM7.375,10.169Q0,14.4,0,19.356v9.19Q0,33.5,7.375,37.733t20.047,6.713a143.852,143.852,0,0,0,27.567,2.477,143.835,143.835,0,0,0,27.567-2.477q12.672-2.477,20.047-6.713t7.375-9.187v-9.19q0-4.95-7.375-9.187T82.555,3.456A143.835,143.835,0,0,0,54.989.979,143.852,143.852,0,0,0,27.422,3.456Q14.749,5.933,7.375,10.169Z" transform="translate(0 0)" fill="#fff" fill-rule="evenodd"/></g></svg>