<svg xmlns="http://www.w3.org/2000/svg" width="104.001" height="103.994" viewBox="0 0 104.001 103.994"><path d="M104,78.137c.044,2.793-.84,4.508-3.464,5.691-11.8,5.325-23.533,10.8-35.286,16.229-2.449,1.131-4.851,2.376-7.342,3.4-2.868,1.185-4.075.445-4.261-2.634-.154-2.567-.054-5.15-.054-7.725,0-14.1.052-28.195-.046-42.292-.02-2.816.926-4.49,3.525-5.657,14.024-6.3,27.989-12.724,41.976-19.1a14.067,14.067,0,0,1,2.249-.908,1.829,1.829,0,0,1,2.548,1.761,29.242,29.242,0,0,1,.107,3.248q.012,11.792,0,23.585C103.954,61.871,103.872,70.005,104,78.137ZM96.775,22.891q-7.632,3.734-15.358,7.275-12.675,5.84-25.39,11.591c-1.214.551-2.483.981-3.646,1.436a16.6,16.6,0,0,1-2.9-.773q-6.208-2.966-12.343-6.087a6.515,6.515,0,0,1-1.367-1.323,8.409,8.409,0,0,1,1.5-1.2Q58.234,23.72,79.213,13.661a5.37,5.37,0,0,1,5.007-.24c4.142,1.965,8.359,3.773,12.5,5.744.754.359,1.784,1.207,1.774,1.813C98.478,21.638,97.522,22.525,96.775,22.891ZM50.952,10.075c-10.34,4.945-20.675,9.9-31.055,14.76-1.661.777-3.776,1.838-5.286,1.4-3.05-.889-5.856-2.665-8.668-4.248-.268-.151-.114-1.7.3-2.257s1.4-.717,2.137-1.048Q28.481,9.638,48.584.6C51.805-.844,57.67.44,60.159,3.108a9.266,9.266,0,0,1,.786,1.25A12.008,12.008,0,0,1,58.918,6.1C56.3,7.486,53.63,8.794,50.952,10.075ZM13.17,33.274c0,5.834.128,11.672-.049,17.5-.086,2.819.77,4.539,3.44,5.653,4.1,1.714,8.066,3.776,12.116,5.631,2.606,1.194,2.889,1.02,2.927-2.07.065-5.427.018-10.855.024-16.281,0-.949,0-1.9.067-2.847.11-1.609,1-2.234,2.457-1.568C38.94,41.477,43.7,43.73,48.458,45.98c1.947.92,1.971,2.72,1.969,4.526q-.007,12.414,0,24.828,0,11.193,0,22.386c0,.949.041,1.9-.026,2.847-.24,3.351-1.381,4.121-4.433,2.839-2.86-1.2-5.657-2.558-8.473-3.861C26.348,94.383,15.246,89.123,4.032,84.112.947,82.734-.03,80.823,0,77.527.142,61.656.063,45.782.067,29.909A27.213,27.213,0,0,1,.15,27.064c.18-1.724,1.2-2.481,2.8-1.83,2.871,1.172,5.692,2.472,8.492,3.807C13.228,29.893,13.168,31.627,13.17,33.274Z" transform="translate(0.001 0)" fill="#fff" fill-rule="evenodd"/></svg>