<svg xmlns="http://www.w3.org/2000/svg" width="135.707" height="74.022" viewBox="0 0 135.707 74.022"><path d="M124.87,9H13.837A12.373,12.373,0,0,0,1.5,21.337V70.685A12.373,12.373,0,0,0,13.837,83.022H124.87a12.373,12.373,0,0,0,12.337-12.337V21.337A12.373,12.373,0,0,0,124.87,9ZM63.185,52.18H44.68V70.685H32.343V52.18H13.837V39.843H32.343V21.337H44.68V39.843H63.185ZM90.943,64.517a9.253,9.253,0,1,1,9.253-9.253A9.24,9.24,0,0,1,90.943,64.517Zm24.674-18.506a9.253,9.253,0,1,1,9.253-9.253A9.24,9.24,0,0,1,115.617,46.011Z" transform="translate(-1.5 -9)" fill="#fff"/></svg>