<svg xmlns="http://www.w3.org/2000/svg" width="119.284" height="116.304" viewBox="0 0 119.284 116.304"><path d="M39.9,94.21c0,.481-.553.866-1.251.866-.794.072-1.347-.313-1.347-.866,0-.481.553-.866,1.251-.866C39.272,93.272,39.9,93.657,39.9,94.21Zm-7.479-1.082c-.168.481.313,1.034,1.034,1.178a1.128,1.128,0,0,0,1.491-.481c.144-.481-.313-1.034-1.034-1.251A1.234,1.234,0,0,0,32.418,93.128Zm10.63-.409c-.7.168-1.178.625-1.106,1.178.072.481.7.794,1.419.625.7-.168,1.178-.625,1.106-1.106C44.395,92.96,43.746,92.647,43.048,92.719ZM58.873.563C25.516.563,0,25.886,0,59.243a60.294,60.294,0,0,0,40.764,57.526c3.078.553,4.161-1.347,4.161-2.91,0-1.491-.072-9.716-.072-14.766,0,0-16.834,3.607-20.37-7.167,0,0-2.742-7-6.686-8.8,0,0-5.507-3.776.385-3.7a12.7,12.7,0,0,1,9.283,6.2C32.731,94.908,41.557,92.238,45,90.651a13.366,13.366,0,0,1,3.848-8.1C35.4,81.055,21.837,79.107,21.837,55.972c0-6.614,1.828-9.932,5.676-14.165-.625-1.563-2.669-8.008.625-16.329,5.026-1.563,16.594,6.493,16.594,6.493a56.814,56.814,0,0,1,30.206,0s11.568-8.081,16.594-6.493c3.295,8.345,1.251,14.766.625,16.329,3.848,4.257,6.2,7.576,6.2,14.165,0,23.208-14.165,25.059-27.609,26.574,2.213,1.9,4.088,5.507,4.088,11.159,0,8.1-.072,18.133-.072,20.105,0,1.563,1.106,3.463,4.161,2.91,24.049-7.984,40.355-30.807,40.355-57.478C119.284,25.886,92.229.563,58.873.563Zm-35.5,82.946c-.313.24-.24.794.168,1.251.385.385.938.553,1.251.24.313-.24.24-.794-.168-1.251C24.242,83.364,23.689,83.2,23.376,83.508Zm-2.6-1.948c-.168.313.072.7.553.938a.716.716,0,0,0,1.034-.168c.168-.313-.072-.7-.553-.938C21.332,81.248,20.947,81.32,20.779,81.56Zm7.792,8.562c-.385.313-.24,1.034.313,1.491.553.553,1.251.625,1.563.24.313-.313.168-1.034-.313-1.491C29.6,89.809,28.883,89.737,28.571,90.122Zm-2.742-3.535c-.385.24-.385.866,0,1.419s1.034.794,1.347.553a1.1,1.1,0,0,0,0-1.491C26.839,86.515,26.214,86.274,25.829,86.587Z" transform="translate(0 -0.563)" fill="#fff"/></svg>