<svg xmlns="http://www.w3.org/2000/svg" width="99.83" height="99.83" viewBox="0 0 99.83 99.83"><path d="M99.893,20.584l4.437-4.437a38.836,38.836,0,0,0-55.461,0l4.437,4.437A34.684,34.684,0,0,1,76.6,11.155,34.684,34.684,0,0,1,99.893,20.584ZM94.9,25.021a25.453,25.453,0,0,0-36.6,0l4.437,4.437a20.1,20.1,0,0,1,27.731,0L94.9,25.021ZM93.238,59.961H82.146V37.777H71.053V59.961H15.592A11.125,11.125,0,0,0,4.5,71.053V93.238A11.125,11.125,0,0,0,15.592,104.33H93.238A11.125,11.125,0,0,0,104.33,93.238V71.053A11.125,11.125,0,0,0,93.238,59.961ZM32.231,87.692H21.138V76.6H32.231Zm19.411,0H40.55V76.6H51.642Zm19.411,0H59.961V76.6H71.053Z" transform="translate(-4.5 -4.5)" fill="#fff"/></svg>