<svg xmlns="http://www.w3.org/2000/svg" width="98.128" height="118.826" viewBox="0 0 98.128 118.826"><path d="M49.19,28.613c.232.116.418.395.7.395.255,0,.65-.093.673-.348.046-.325-.441-.534-.743-.673a1.534,1.534,0,0,0-1.276-.023c-.093.046-.186.162-.139.255.07.3.534.255.789.395Zm-5.082.395c.278,0,.464-.278.7-.395.255-.139.719-.093.812-.371.046-.093-.046-.209-.139-.255a1.534,1.534,0,0,0-1.276.023c-.3.139-.789.348-.743.673.023.232.418.348.65.325Zm51.309,64.7c-.835-.928-1.23-2.692-1.671-4.572-.418-1.88-.905-3.9-2.437-5.2a6.272,6.272,0,0,0-.928-.673,5.149,5.149,0,0,0-.951-.464c2.135-6.335,1.3-12.647-.859-18.356-2.646-6.985-7.264-13.088-10.791-17.265-3.968-4.989-7.821-9.723-7.751-16.709C70.145,19.818,71.212.023,52.438,0,28.675-.046,34.616,24,34.361,31.375a26.913,26.913,0,0,1-5.221,15.014C24.753,51.611,18.58,60.035,15.656,68.83A26.676,26.676,0,0,0,14.218,81.2c-1.508,1.346-2.646,3.411-3.852,4.688-.975,1-2.39,1.369-3.945,1.926a7.181,7.181,0,0,0-4.293,3.365,5.944,5.944,0,0,0-.65,2.878,18.256,18.256,0,0,0,.278,2.738c.278,1.88.58,3.643.186,4.827-1.207,3.342-1.369,5.662-.511,7.356.882,1.694,2.646,2.437,4.664,2.854,4.015.835,9.468.627,13.761,2.9,4.595,2.413,9.259,3.272,12.972,2.413a8.411,8.411,0,0,0,6.01-4.688c2.9-.023,6.1-1.253,11.209-1.532,3.458-.278,7.8,1.23,12.787.951a7.371,7.371,0,0,0,.58,1.555v.023a9.307,9.307,0,0,0,9.352,5.337c3.852-.3,7.913-2.553,11.209-6.475,3.156-3.806,8.354-5.384,11.812-7.472,1.717-1.044,3.11-2.344,3.226-4.247C99.106,98.7,97.992,96.585,95.417,93.707ZM49.863,20.259c2.274-5.152,7.937-5.059,10.211-.093a9.237,9.237,0,0,1-1,9.375A28.7,28.7,0,0,0,56.151,28.4a4.151,4.151,0,0,0,.905-1.067C58.17,24.6,57.01,21.071,54.945,21c-1.694-.116-3.226,2.506-2.738,5.337a16.531,16.531,0,0,0-3.017-1.021,9.245,9.245,0,0,1,.673-5.059ZM40.418,17.59c2.344,0,4.827,3.3,4.432,7.774a8.348,8.348,0,0,0-2.367,1.067c.278-2.065-.766-4.664-2.228-4.548-1.949.162-2.274,4.92-.418,6.521.232.186.441-.046-1.369,1.276-3.62-3.388-2.437-12.09,1.949-12.09ZM37.261,31.677c1.439-1.067,3.156-2.321,3.272-2.437,1.091-1.021,3.133-3.3,6.475-3.3a11.165,11.165,0,0,1,6.01,2.065c1.462.951,2.622,1.021,5.245,2.158,1.949.812,3.179,2.251,2.437,4.224-.6,1.648-2.553,3.342-5.268,4.2-2.576.835-4.595,3.713-8.865,3.458a6.464,6.464,0,0,1-2.228-.487c-1.857-.812-2.831-2.413-4.641-3.481a6.753,6.753,0,0,1-3.411-3.551,2.5,2.5,0,0,1,.975-2.854Zm.766,77.509c-.627,8.145-10.188,7.983-17.474,4.177-6.939-3.667-15.92-1.508-17.753-5.082-.557-1.091-.557-2.947.6-6.126v-.046c.557-1.764.139-3.713-.139-5.546-.278-1.81-.418-3.481.209-4.641A5.311,5.311,0,0,1,6.908,89.3c2.39-.859,2.738-.789,4.548-2.3,1.276-1.323,2.2-2.994,3.319-4.177a4.2,4.2,0,0,1,4.108-1.6c1.88.278,3.5,1.578,5.082,3.713L28.513,93.2c2.2,4.618,10,11.232,9.515,15.989Zm-.325-6.01a49.812,49.812,0,0,0-3.342-4.548c1.648,0,3.3-.511,3.875-2.065.534-1.439,0-3.458-1.717-5.778-3.133-4.224-8.888-7.542-8.888-7.542A12.544,12.544,0,0,1,21.922,76.3a15.713,15.713,0,0,1-.07-8.169c1.207-5.314,4.316-10.489,6.312-13.738.534-.395.186.743-2.019,4.827-1.973,3.736-5.662,12.369-.6,19.122a40.078,40.078,0,0,1,3.2-14.272c2.785-6.359,8.656-17.382,9.12-26.154.255.186,1.067.743,1.439.951a26.974,26.974,0,0,1,2.924,2.39c2.878,2.321,6.614,2.135,9.839.278a25.6,25.6,0,0,1,3.69-2.089,9.914,9.914,0,0,0,5.175-3.481,119.863,119.863,0,0,0,8.633,22.208A52.223,52.223,0,0,1,75.041,73.17a9.229,9.229,0,0,1,2.529.325c3.2-8.285-2.715-17.219-5.407-19.7-1.091-1.067-1.137-1.532-.6-1.508a28.635,28.635,0,0,1,8.169,13.692,17.533,17.533,0,0,1,.093,8.285c3.806,1.578,8.331,4.154,7.124,8.076-.511-.023-.743,0-.975,0,.743-2.344-.905-4.084-5.291-6.057-4.548-2-8.354-2-8.888,2.9-2.808.975-4.247,3.411-4.966,6.335a51.225,51.225,0,0,0-1.021,9.259,36.34,36.34,0,0,1-1.578,6.73c-7.449,5.314-17.8,7.635-26.525,1.671Zm59.733-2.669c-.209,3.9-9.561,4.618-14.666,10.791-3.063,3.643-6.823,5.662-10.118,5.918a7.591,7.591,0,0,1-7.821-4.479c-1.091-2.576-.557-5.361.255-8.424.859-3.3,2.135-6.683,2.3-9.422a52.226,52.226,0,0,1,.975-8.981c.6-2.39,1.532-3.991,3.179-4.9.07-.046.162-.07.232-.116.186,3.063,1.694,6.173,4.363,6.846,2.924.766,7.124-1.74,8.911-3.783,2.089-.07,3.643-.209,5.245,1.184,2.3,1.973,1.648,7.032,3.968,9.654,2.46,2.692,3.249,4.525,3.179,5.709Zm-59.269-66c.464.441,1.091,1.044,1.857,1.648a10.263,10.263,0,0,0,6.335,2.46c2.692,0,5.221-1.369,7.38-2.506A20.635,20.635,0,0,0,57.173,33.7c.905-.789,1.369-1.462.719-1.532s-.6.6-1.392,1.184c-1.021.743-2.251,1.717-3.226,2.274-1.717.975-4.525,2.367-6.939,2.367a9.3,9.3,0,0,1-5.778-2.251c-.719-.58-1.323-1.16-1.787-1.6-.348-.325-.441-1.067-1-1.137-.325-.023-.418.859.395,1.508Z" transform="translate(-0.891)" fill="#fff"/></svg>