<svg xmlns="http://www.w3.org/2000/svg" width="119.42" height="104.492" viewBox="0 0 119.42 104.492"><path d="M119.42,28.373V95.547a11.2,11.2,0,0,1-11.2,11.2H11.2A11.2,11.2,0,0,1,0,95.547V28.373a11.2,11.2,0,0,1,11.2-11.2H31.721L34.59,9.5A11.18,11.18,0,0,1,45.062,2.25H74.334A11.18,11.18,0,0,1,84.807,9.5L87.7,17.177h20.525A11.2,11.2,0,0,1,119.42,28.373ZM87.7,61.96A27.989,27.989,0,1,0,59.71,89.949,28.011,28.011,0,0,0,87.7,61.96Zm-7.464,0A20.525,20.525,0,1,1,59.71,41.435,20.556,20.556,0,0,1,80.235,61.96Z" transform="translate(0 -2.25)" fill="#bdbdbd"/></svg>