<svg xmlns="http://www.w3.org/2000/svg" width="98.83" height="98.83" viewBox="0 0 98.83 98.83"><path d="M30.884,55.592H20.075a1.544,1.544,0,0,1-1.544-1.544V50.959a1.544,1.544,0,0,1,1.544-1.544h10.81V37.061H20.075a1.544,1.544,0,0,1-1.544-1.544V32.429a1.544,1.544,0,0,1,1.544-1.544h10.81V18.531H20.075a1.544,1.544,0,0,1-1.544-1.544V13.9a1.544,1.544,0,0,1,1.544-1.544h10.81V6.177A6.178,6.178,0,0,0,24.708,0H6.177A6.178,6.178,0,0,0,0,6.177V92.653a5.941,5.941,0,0,0,.3,1.506L30.884,63.579ZM92.653,67.946H86.476v10.81A1.544,1.544,0,0,1,84.932,80.3H81.844A1.544,1.544,0,0,1,80.3,78.755V67.946H67.946v10.81A1.544,1.544,0,0,1,66.4,80.3H63.313a1.544,1.544,0,0,1-1.544-1.544V67.946H49.415v10.81A1.544,1.544,0,0,1,47.871,80.3H44.782a1.544,1.544,0,0,1-1.544-1.544V67.946H35.253L4.671,98.527a5.958,5.958,0,0,0,1.506.3H92.653a6.178,6.178,0,0,0,6.177-6.177V74.123A6.178,6.178,0,0,0,92.653,67.946Z" fill="#fff"/></svg>