<svg xmlns="http://www.w3.org/2000/svg" width="130.405" height="104.324" viewBox="0 0 130.405 104.324"><path d="M78.243,65.2H52.162a6.521,6.521,0,0,0-6.52,6.52V97.8a6.521,6.521,0,0,0,6.52,6.52H78.243a6.521,6.521,0,0,0,6.52-6.52V71.723A6.521,6.521,0,0,0,78.243,65.2ZM39.122,6.52A6.521,6.521,0,0,0,32.6,0H6.52A6.521,6.521,0,0,0,0,6.52V32.6a6.521,6.521,0,0,0,6.52,6.52h19.5L40.931,65.211a13,13,0,0,1,11.231-6.528h.057l-13.1-22.921V26.081H84.763V13.041H39.122ZM123.885,0H97.8a6.521,6.521,0,0,0-6.52,6.52V32.6a6.521,6.521,0,0,0,6.52,6.52h26.081a6.521,6.521,0,0,0,6.52-6.52V6.52A6.521,6.521,0,0,0,123.885,0Z" fill="#fff"/></svg>