<svg xmlns="http://www.w3.org/2000/svg" width="135.83" height="86.437" viewBox="0 0 135.83 86.437"><path d="M94.111,44.545A18.522,18.522,0,1,0,75.589,26.022,18.445,18.445,0,0,0,94.111,44.545Zm-49.393,0A18.522,18.522,0,1,0,26.2,26.022,18.445,18.445,0,0,0,44.719,44.545Zm0,12.348C30.333,56.893,1.5,64.116,1.5,78.5V93.937H87.937V78.5C87.937,64.116,59.1,56.893,44.719,56.893Zm49.393,0c-1.79,0-3.828.123-5.989.309,7.162,5.186,12.163,12.163,12.163,21.3V93.937H137.33V78.5C137.33,64.116,108.5,56.893,94.111,56.893Z" transform="translate(-1.5 -7.5)" fill="#fff"/></svg>