<svg xmlns="http://www.w3.org/2000/svg" width="153" height="133.882" viewBox="0 0 153 133.882"><path d="M124.97,45.637q-2.421-.807-4.841-1.524c.269-1.106.508-2.211.747-3.317,3.676-17.81,1.255-32.124-6.9-36.846-7.859-4.512-20.679.179-33.648,11.475-1.285,1.106-2.54,2.271-3.735,3.437-.807-.777-1.644-1.554-2.48-2.3C60.513,4.488,46.886-.592,38.728,4.16,30.9,8.7,28.568,22.179,31.855,39.033c.329,1.673.687,3.317,1.106,4.99-1.913.538-3.8,1.136-5.558,1.763C11.445,51.315,0,60.041,0,69.065,0,78.389,12.192,87.742,28.777,93.42c1.345.448,2.689.9,4.064,1.285-.448,1.793-.837,3.556-1.2,5.379-3.138,16.585-.687,29.733,7.142,34.246,8.068,4.662,21.635-.12,34.843-11.684,1.046-.926,2.092-1.883,3.138-2.9,1.315,1.285,2.689,2.51,4.064,3.705,12.79,11,25.43,15.449,33.23,10.937,8.068-4.662,10.7-18.8,7.291-36.009q-.4-1.972-.9-4.034c.956-.269,1.883-.568,2.809-.867C140.509,87.772,153,78.538,153,69.065c0-9.055-11.774-17.84-28.03-23.428ZM84.538,20.266c11.116-9.682,21.486-13.477,26.207-10.758,5.05,2.9,6.993,14.613,3.825,30-.209,1.016-.418,2-.687,2.988a152.978,152.978,0,0,0-20.111-3.168,150.983,150.983,0,0,0-12.73-15.868c1.165-1.106,2.3-2.152,3.5-3.2ZM49.964,84.574c1.524,2.6,3.078,5.2,4.721,7.74A135.322,135.322,0,0,1,40.82,90.073a139.6,139.6,0,0,1,4.871-13.3c1.375,2.63,2.779,5.229,4.273,7.8ZM40.91,48.625c4.3-.956,8.875-1.733,13.627-2.331-1.584,2.48-3.138,5.02-4.6,7.59-1.464,2.54-2.9,5.14-4.243,7.77-1.883-4.453-3.466-8.815-4.781-13.029ZM49.1,69.215c1.972-4.124,4.124-8.158,6.395-12.132s4.721-7.829,7.291-11.624c4.482-.329,9.055-.508,13.716-.508s9.264.179,13.716.508q3.81,5.648,7.262,11.565T103.962,69.1q-3,6.186-6.455,12.192c-2.271,3.974-4.692,7.829-7.232,11.654-4.453.329-9.084.478-13.776.478S67.266,93.27,62.873,93q-3.9-5.693-7.351-11.654C53.221,77.373,51.1,73.338,49.1,69.215Zm53.968,15.3c1.524-2.63,2.958-5.289,4.363-7.979a138.72,138.72,0,0,1,5.05,13.238,131.252,131.252,0,0,1-14.045,2.391C100.048,89.654,101.572,87.084,103.066,84.515Zm4.3-22.86c-1.4-2.63-2.839-5.259-4.333-7.829q-2.2-3.81-4.572-7.53a137.516,137.516,0,0,1,13.716,2.391,132.251,132.251,0,0,1-4.811,12.969ZM76.56,28.036a131.219,131.219,0,0,1,8.845,10.7c-5.917-.269-11.863-.269-17.78,0C70.553,34.879,73.572,31.293,76.56,28.036ZM41.9,9.718c5.02-2.929,16.167,1.255,27.911,11.654.747.657,1.494,1.375,2.271,2.092a151.821,151.821,0,0,0-12.82,15.868A157.522,157.522,0,0,0,39.176,42.44c-.388-1.524-.717-3.078-1.046-4.632-2.809-14.463-.956-25.371,3.765-28.09ZM34.574,88.489c-1.255-.359-2.48-.747-3.705-1.165-6.365-2-13.6-5.17-18.826-9.323a13.409,13.409,0,0,1-5.618-8.935c0-5.469,9.443-12.461,23.07-17.213,1.7-.6,3.437-1.136,5.17-1.644a158.9,158.9,0,0,0,7.321,19.005,163.347,163.347,0,0,0-7.411,19.274Zm34.843,29.285a54.7,54.7,0,0,1-16.854,10.549,13.226,13.226,0,0,1-10.549.388c-4.751-2.749-6.724-13.3-4.034-27.492.329-1.673.687-3.347,1.106-4.99a149.5,149.5,0,0,0,20.29,2.928,157.7,157.7,0,0,0,12.909,15.957C71.33,116.041,70.374,116.937,69.418,117.774Zm7.321-7.262c-3.048-3.287-6.1-6.933-9.054-10.847,2.869.12,5.827.179,8.815.179,3.078,0,6.1-.06,9.084-.209a128.87,128.87,0,0,1-8.845,10.877Zm39.057,8.965a13.281,13.281,0,0,1-4.931,9.353c-4.751,2.749-14.882-.837-25.819-10.22-1.255-1.076-2.51-2.241-3.8-3.437A147.823,147.823,0,0,0,93.862,99.157a147.312,147.312,0,0,0,20.38-3.138c.3,1.225.568,2.45.807,3.646a54.474,54.474,0,0,1,.747,19.812Zm5.439-32.124c-.837.269-1.673.538-2.54.777a151.806,151.806,0,0,0-7.62-19.065,151.045,151.045,0,0,0,7.321-18.8c1.554.448,3.048.926,4.482,1.4,13.925,4.781,23.7,11.893,23.7,17.332,0,5.857-10.429,13.417-25.341,18.348ZM76.5,82.871A13.686,13.686,0,1,0,62.814,69.185,13.684,13.684,0,0,0,76.5,82.871Z" transform="translate(0 -2.251)" fill="#fff"/></svg>